<svg xmlns="http://www.w3.org/2000/svg" width="16.83" height="11.361" viewBox="0 0 16.83 11.361">
  <path id="Icon_zocial-email" data-name="Icon zocial-email" d="M.072,14.423V5.074q0-.016.049-.308l5.5,4.707L.137,14.747a1.375,1.375,0,0,1-.065-.325ZM.8,4.117a.7.7,0,0,1,.276-.049H15.9a.919.919,0,0,1,.292.049L10.67,8.84l-.73.584L8.5,10.609,7.051,9.424l-.73-.584ZM.819,15.38l5.534-5.307L8.5,11.81l2.142-1.737,5.534,5.307a.779.779,0,0,1-.276.049H1.078a.735.735,0,0,1-.26-.049ZM11.368,9.473l5.486-4.707a.969.969,0,0,1,.049.308v9.348a1.244,1.244,0,0,1-.049.325Z" transform="translate(-0.072 -4.068)" opacity="0.37"/>
</svg>
